<?xml version="1.0" standalone="no"?>
<!DOCTYPE svg PUBLIC "-//W3C//DTD SVG 20010904//EN"
 "http://www.w3.org/TR/2001/REC-SVG-20010904/DTD/svg10.dtd">
<svg version="1.0" xmlns="http://www.w3.org/2000/svg"
 width="480.000000pt" height="480.000000pt" viewBox="0 0 480.000000 480.000000"
 preserveAspectRatio="xMidYMid meet">
<metadata>
Created by potrace 1.11, written by Peter Selinger 2001-2013
</metadata>
<g transform="translate(0.000000,480.000000) scale(0.100000,-0.100000)"
fill="#000000" stroke="none">
<path d="M1668 4344 c-2 -1 -25 -5 -53 -8 -77 -10 -107 -16 -150 -28 -22 -6
-44 -11 -48 -10 -4 1 -16 -2 -25 -7 -10 -5 -38 -12 -62 -16 -25 -3 -59 -10
-77 -15 -17 -4 -34 -6 -36 -4 -2 3 -24 0 -48 -5 -24 -5 -66 -12 -94 -15 -27
-4 -63 -9 -80 -11 -16 -3 -50 -7 -75 -10 -25 -3 -58 -7 -75 -10 -16 -2 -52 -7
-80 -10 -27 -3 -63 -8 -80 -10 -55 -6 -227 -21 -291 -24 -15 -1 -33 -18 -55
-53 -19 -28 -37 -56 -41 -62 -5 -7 -58 -11 -150 -11 l-143 0 -3 -1747 -2
-1746 127 4 c71 2 211 7 313 9 218 5 461 12 690 20 635 21 829 23 838 8 6 -10
35 -24 167 -83 23 -10 102 -32 125 -34 9 -1 20 -5 25 -8 12 -6 230 -2 260 5
102 26 218 78 277 124 l37 30 138 -3 c76 -1 251 -5 388 -9 138 -3 324 -8 415
-10 156 -4 331 -8 798 -20 l202 -5 0 1743 0 1742 -173 -1 -173 -2 -35 54 c-19
30 -41 54 -49 55 -8 0 -37 2 -65 4 -93 6 -190 15 -220 19 -16 2 -59 7 -95 11
-36 3 -93 11 -128 16 -34 5 -84 12 -110 15 -26 3 -58 7 -72 10 -47 8 -75 12
-160 24 -47 7 -110 19 -140 27 -30 8 -68 16 -85 19 -16 3 -43 9 -60 14 -79 23
-297 32 -400 16 -81 -12 -235 -70 -235 -88 0 -5 -4 -7 -9 -3 -11 6 -142 -119
-182 -173 -30 -41 -43 -37 -88 29 -78 115 -254 217 -404 236 -44 5 -245 12
-249 7z"/>
</g>
</svg>
