<?xml version="1.0" standalone="no"?>
<!DOCTYPE svg PUBLIC "-//W3C//DTD SVG 20010904//EN"
 "http://www.w3.org/TR/2001/REC-SVG-20010904/DTD/svg10.dtd">
<svg version="1.0" xmlns="http://www.w3.org/2000/svg"
 width="480.000000pt" height="480.000000pt" viewBox="0 0 480.000000 480.000000"
 preserveAspectRatio="xMidYMid meet">
<metadata>
Created by potrace 1.11, written by Peter Selinger 2001-2013
</metadata>
<g transform="translate(0.000000,480.000000) scale(0.100000,-0.100000)"
fill="#000000" stroke="none">
<path d="M325 4080 l-31 -45 -147 -3 -147 -3 0 -1745 0 -1745 148 5 c81 4 390
13 687 21 297 9 666 20 820 25 l279 9 62 -35 c277 -155 580 -148 824 20 l45
30 160 -2 c142 -2 840 -19 1533 -37 l242 -7 0 1741 0 1741 -175 0 -174 0 -26
37 -25 38 0 -1489 0 -1489 -127 7 c-120 6 -229 13 -778 52 -121 8 -249 20
-285 27 -104 19 -400 15 -491 -6 -117 -27 -205 -74 -267 -141 l-52 -58 -2
1484 c-3 1310 -5 1483 -18 1483 -13 0 -15 -173 -18 -1485 -2 -1364 -1 -1486
14 -1497 11 -8 14 -18 9 -30 -5 -15 -11 -9 -28 27 -48 101 -160 178 -313 216
-88 21 -323 29 -429 15 -117 -16 -366 -38 -645 -56 -135 -9 -301 -20 -370 -25
-69 -5 -151 -10 -182 -10 l-58 0 -2 1488 -3 1487 -30 -45z m-229 -137 c9 -76
-3 -593 -15 -607 -5 -6 -11 -20 -14 -31 -2 -11 -5 141 -6 338 -1 303 1 357 13
357 10 0 17 -18 22 -57z m4643 -340 c-1 -219 -4 -387 -7 -373 -4 23 -5 23 -12
5 -9 -24 -22 392 -19 608 2 146 3 157 20 157 18 0 19 -16 18 -397z m-2282
-3048 c0 -10 -11 -15 -34 -15 -23 0 -33 5 -33 15 0 10 10 15 33 15 23 0 34 -5
34 -15z"/>
<path d="M2365 4030 c4 -6 11 -8 16 -5 14 9 11 15 -7 15 -8 0 -12 -5 -9 -10z"/>
<path d="M1510 3989 c-30 -5 -107 -21 -170 -35 -213 -48 -348 -65 -552 -71
l-196 -6 -5 -31 c-2 -17 -3 -33 0 -36 3 -3 53 -7 111 -9 184 -6 455 28 692 86
154 38 374 43 520 13 84 -17 194 -54 285 -95 6 -3 18 9 27 25 l17 30 -57 29
c-177 89 -470 133 -672 100z"/>
<path d="M2907 3985 c-107 -17 -211 -48 -296 -86 -36 -16 -67 -31 -69 -33 -4
-5 27 -66 34 -66 2 0 24 10 47 21 66 34 174 68 266 84 104 19 315 19 401 1
392 -83 556 -106 745 -106 144 0 157 4 153 44 l-3 31 -195 6 c-208 7 -346 26
-580 79 -166 38 -364 48 -503 25z"/>
<path d="M2930 3674 c-124 -15 -390 -91 -390 -110 0 -3 7 -18 15 -33 l14 -29
98 34 c222 76 451 84 705 25 221 -51 376 -71 578 -77 109 -3 191 -1 199 4 9 6
11 19 7 40 l-7 30 -202 5 c-212 5 -295 17 -577 77 -142 31 -342 46 -440 34z"/>
<path d="M1473 3659 c-33 -4 -112 -19 -175 -33 -206 -46 -381 -68 -560 -70
-158 -1 -167 -2 -172 -21 -17 -60 -26 -58 202 -52 220 6 373 25 571 73 82 20
142 27 262 31 173 6 259 -4 352 -42 l58 -23 15 31 c15 29 15 31 -2 44 -77 57
-354 88 -551 62z"/>
<path d="M1481 3330 c-36 -5 -103 -18 -150 -29 -235 -55 -494 -86 -665 -80
l-96 4 -6 -33 c-4 -18 -3 -36 1 -40 13 -13 319 -5 445 12 69 9 179 28 245 42
253 53 281 57 455 51 183 -6 292 -28 429 -86 40 -17 76 -31 80 -31 7 0 31 44
31 55 0 20 -210 96 -330 120 -91 19 -351 27 -439 15z"/>
<path d="M2932 3324 c-146 -21 -392 -104 -392 -132 0 -6 8 -20 18 -32 l19 -23
86 37 c152 65 243 81 472 80 183 0 209 -3 307 -27 225 -56 568 -96 713 -82 73
7 75 7 75 33 0 15 -4 32 -8 37 -4 6 -79 11 -182 12 -186 1 -342 20 -554 68
-211 47 -372 56 -554 29z"/>
<path d="M1475 3005 c-44 -8 -134 -25 -200 -40 -201 -44 -375 -65 -546 -65
-167 0 -169 -1 -169 -51 0 -28 35 -33 224 -26 188 7 355 30 564 78 254 59 483
51 705 -25 l99 -34 13 32 14 31 -52 24 c-168 76 -451 109 -652 76z"/>
<path d="M2930 3014 c-124 -15 -390 -91 -390 -110 0 -3 7 -18 15 -33 l14 -28
113 37 c149 50 251 64 418 58 103 -4 168 -13 272 -37 221 -51 376 -72 578 -77
109 -3 191 -1 199 4 9 7 11 19 6 41 l-7 31 -156 0 c-202 0 -358 22 -687 95
-69 15 -307 27 -375 19z"/>
<path d="M1492 2699 c-52 -5 -144 -20 -205 -33 -210 -47 -366 -68 -562 -75
l-190 -6 -3 -31 c-3 -28 0 -32 29 -38 119 -23 447 9 744 74 261 58 489 49 657
-24 23 -10 57 52 36 65 -52 34 -315 85 -398 78 -8 -1 -57 -5 -108 -10z"/>
<path d="M2738 2690 c-51 -9 -164 -45 -186 -59 -22 -13 13 -75 36 -65 171 74
390 83 657 25 77 -17 186 -37 242 -46 111 -16 388 -21 397 -6 3 5 3 22 0 37
l-6 29 -141 1 c-153 1 -298 19 -473 60 -92 22 -138 27 -294 30 -102 1 -206 -1
-232 -6z"/>
<path d="M1515 2361 c-27 -5 -113 -22 -190 -39 -222 -49 -337 -63 -542 -69
l-191 -6 -5 -31 c-2 -17 -3 -33 0 -36 3 -3 84 -5 181 -4 221 1 337 17 712 99
59 13 109 16 240 12 206 -7 263 -20 476 -113 13 -6 39 50 30 64 -9 15 -185 80
-276 102 -94 23 -346 35 -435 21z"/>
<path d="M2925 2360 c-96 -16 -207 -46 -286 -79 -106 -45 -104 -43 -85 -80 9
-17 19 -31 22 -31 2 0 26 11 52 24 204 103 495 124 787 57 191 -44 373 -70
540 -78 171 -7 235 0 235 27 0 49 -4 50 -149 50 -204 0 -427 30 -676 91 -93
23 -345 34 -440 19z"/>
<path d="M2981 2049 c-52 -5 -133 -18 -180 -30 -95 -24 -252 -88 -258 -105 -2
-6 5 -22 15 -35 l20 -23 68 31 c193 89 463 115 679 68 359 -80 522 -100 793
-96 72 1 72 1 72 29 0 15 -4 32 -8 37 -4 6 -75 11 -172 12 -181 1 -354 23
-574 72 -191 43 -306 53 -455 40z"/>
<path d="M1455 2033 c-22 -3 -98 -17 -170 -33 -217 -48 -404 -72 -585 -75
l-165 -2 -3 -36 -3 -36 73 -3 c190 -8 441 20 683 75 132 30 151 32 335 32 188
0 198 -1 275 -28 l80 -28 18 22 c10 12 16 27 14 33 -6 18 -109 55 -202 71 -81
14 -250 18 -350 8z"/>
<path d="M1370 1720 c-306 -67 -558 -97 -717 -87 -77 4 -82 3 -87 -17 -14 -50
-10 -53 71 -60 151 -13 462 23 733 86 118 27 154 31 285 32 181 1 309 -23 477
-89 12 -5 21 2 32 24 16 30 16 31 -11 45 -48 24 -191 65 -280 81 -51 9 -144
15 -227 14 -117 0 -164 -5 -276 -29z"/>
<path d="M2940 1744 c-159 -20 -304 -55 -373 -90 -27 -14 -27 -15 -11 -45 11
-22 20 -29 32 -24 172 67 308 89 522 82 138 -5 179 -10 250 -31 110 -34 238
-56 323 -56 l68 0 -3 33 -3 32 -105 13 c-58 7 -150 24 -205 38 -55 14 -118 30
-140 35 -45 10 -302 19 -355 13z"/>
</g>
</svg>
